<svg width="40" height="40" viewBox="0 0 40 40" fill="none" xmlns="http://www.w3.org/2000/svg">
<path d="M28.3334 20V19.85C28.3258 19.69 28.292 19.5324 28.2334 19.3833C28.1889 19.269 28.127 19.1622 28.0501 19.0667C28.0059 18.9906 27.9557 18.9182 27.9001 18.85L23.1334 13.85C22.9824 13.6913 22.8016 13.564 22.6013 13.4751C22.4011 13.3863 22.1853 13.3378 21.9663 13.3324C21.5241 13.3215 21.0956 13.4867 20.7751 13.7917C20.4546 14.0967 20.2684 14.5165 20.2575 14.9588C20.2465 15.401 20.4117 15.8295 20.7167 16.15L22.7667 18.3333H13.3334C12.8914 18.3333 12.4675 18.5089 12.1549 18.8215C11.8423 19.1341 11.6667 19.558 11.6667 20C11.6667 20.442 11.8423 20.866 12.1549 21.1785C12.4675 21.4911 12.8914 21.6667 13.3334 21.6667H22.6501L20.4834 23.8167C20.3272 23.9716 20.2032 24.156 20.1186 24.3591C20.034 24.5622 19.9904 24.78 19.9904 25C19.9904 25.22 20.034 25.4379 20.1186 25.641C20.2032 25.8441 20.3272 26.0284 20.4834 26.1833C20.6384 26.3396 20.8227 26.4636 21.0258 26.5482C21.2289 26.6328 21.4467 26.6763 21.6667 26.6763C21.8868 26.6763 22.1046 26.6328 22.3077 26.5482C22.5108 26.4636 22.6951 26.3396 22.8501 26.1833L27.8501 21.1833C28 21.0298 28.1188 20.8487 28.2001 20.65C28.2876 20.4445 28.333 20.2234 28.3334 20Z" fill="#488BFF current"/>
<path d="M19.9999 3.33331C16.7036 3.33331 13.4812 4.3108 10.7404 6.14215C7.9996 7.97351 5.86339 10.5765 4.60193 13.6219C3.34047 16.6674 3.01042 20.0185 3.6535 23.2515C4.29659 26.4845 5.88394 29.4542 8.21481 31.7851C10.5457 34.116 13.5154 35.7033 16.7484 36.3464C19.9814 36.9895 23.3326 36.6594 26.378 35.398C29.4234 34.1365 32.0264 32.0003 33.8578 29.2595C35.6891 26.5187 36.6666 23.2963 36.6666 20C36.6666 17.8113 36.2355 15.644 35.3979 13.6219C34.5603 11.5998 33.3327 9.76251 31.785 8.21487C30.2374 6.66722 28.4001 5.43957 26.378 4.60199C24.3559 3.76441 22.1886 3.33331 19.9999 3.33331ZM19.9999 33.3333C17.3628 33.3333 14.785 32.5513 12.5923 31.0862C10.3997 29.6212 8.6907 27.5388 7.68153 25.1024C6.67236 22.6661 6.40832 19.9852 6.92279 17.3988C7.43726 14.8124 8.70714 12.4366 10.5718 10.5719C12.4365 8.70719 14.8123 7.43731 17.3987 6.92284C19.9851 6.40837 22.666 6.67242 25.1024 7.68159C27.5387 8.69075 29.6211 10.3997 31.0862 12.5924C32.5513 14.785 33.3333 17.3629 33.3333 20C33.3333 23.5362 31.9285 26.9276 29.428 29.4281C26.9275 31.9286 23.5361 33.3333 19.9999 33.3333Z" fill="#488BFF current"/>
</svg>
