<svg width="32" height="33" viewBox="0 0 32 33" fill="none" xmlns="http://www.w3.org/2000/svg">
<g clip-path="url(#clip0)">
<path d="M20 4.33993H22V6.32848H20V4.33993ZM24 4.33993H26V6.32848H24V4.33993ZM20 8.31703H22V10.3056H20V8.31703ZM24 8.31703H26V10.3056H24V8.31703ZM20 12.2941H22V14.2827H20V12.2941ZM24 12.2941H26V14.2827H24V12.2941ZM20 16.2712H22V18.2598H20V16.2712ZM24 16.2712H26V18.2598H24V16.2712ZM20 20.2483H22V22.2369H20V20.2483ZM24 20.2483H26V22.2369H24V20.2483ZM28 0.362823H18C17.4696 0.362823 16.9609 0.572331 16.5858 0.945257C16.2107 1.31818 16 1.82398 16 2.35137V8.31703H6C5.46957 8.31703 4.96086 8.52654 4.58579 8.89946C4.21071 9.27239 4 9.77818 4 10.3056V30.1911C4 30.7185 4.21071 31.2243 4.58579 31.5972C4.96086 31.9701 5.46957 32.1796 6 32.1796H28C28.5304 32.1796 29.0391 31.9701 29.4142 31.5972C29.7893 31.2243 30 30.7185 30 30.1911V2.35137C30 1.82398 29.7893 1.31818 29.4142 0.945257C29.0391 0.572331 28.5304 0.362823 28 0.362823V0.362823ZM12 30.1911H10V26.214H12V30.1911ZM14 30.1911V24.2254H8V30.1911H6V10.3056H16V30.1911H14ZM24 30.1911H22V26.214H24V30.1911ZM28 30.1911H26V24.2254H20V30.1911H18V2.35137H28V30.1911ZM8 12.2941H10V14.2827H8V12.2941ZM12 12.2941H14V14.2827H12V12.2941ZM8 16.2712H10V18.2598H8V16.2712ZM12 16.2712H14V18.2598H12V16.2712ZM8 20.2483H10V22.2369H8V20.2483ZM12 20.2483H14V22.2369H12V20.2483Z" fill="current"/>
</g>
<defs>
<clipPath id="clip0">
<rect width="32" height="31.8168" fill="current" transform="translate(0 0.362823)"/>
</clipPath>
</defs>
</svg>
