<svg width="40" height="41" viewBox="0 0 40 41" fill="none" xmlns="http://www.w3.org/2000/svg">
<g clip-path="url(#clip0)">
<path d="M36.6667 15.029L36.4333 14.4656C36.7616 14.4656 37.0867 14.4013 37.39 14.2764C37.6934 14.1514 37.969 13.9684 38.2011 13.7375C38.4332 13.5067 38.6174 13.2327 38.743 12.9311C38.8687 12.6295 38.9333 12.3063 38.9333 11.9799C38.9333 11.6535 38.8687 11.3302 38.743 11.0287C38.6174 10.7271 38.4332 10.4531 38.2011 10.2222C37.969 9.99142 37.6934 9.80833 37.39 9.68341C37.0867 9.55849 36.7616 9.4942 36.4333 9.4942H34.3833L32.5167 4.87081C32.145 4.26052 31.6218 3.75552 30.9971 3.40437C30.3725 3.05322 29.6675 2.86772 28.95 2.86569H11.05C10.3089 2.87308 9.58276 3.07457 8.94488 3.44987C8.30701 3.82517 7.7799 4.361 7.41667 5.00338L5.6 9.4942H3.53333C3.20503 9.4942 2.87994 9.55849 2.57662 9.68341C2.27331 9.80833 1.99771 9.99142 1.76557 10.2222C1.53342 10.4531 1.34927 10.7271 1.22363 11.0287C1.098 11.3302 1.03333 11.6535 1.03333 11.9799C1.03333 12.3063 1.098 12.6295 1.22363 12.9311C1.34927 13.2327 1.53342 13.5067 1.76557 13.7375C1.99771 13.9684 2.27331 14.1514 2.57662 14.2764C2.87994 14.4013 3.20503 14.4656 3.53333 14.4656L3.33333 15.029C2.33655 15.4991 1.49429 16.2406 0.904281 17.1675C0.314274 18.0944 0.000718138 19.1686 8.68569e-08 20.2655V28.5511C-0.000195959 29.5062 0.331486 30.432 0.938912 31.1718C1.54634 31.9116 2.3922 32.4201 3.33333 32.6111V35.1796C3.33333 35.8389 3.59673 36.4711 4.06557 36.9373C4.53441 37.4035 5.17029 37.6653 5.83333 37.6653H7.5C8.16304 37.6653 8.79893 37.4035 9.26777 36.9373C9.73661 36.4711 10 35.8389 10 35.1796V32.694H30V35.1796C30 35.8389 30.2634 36.4711 30.7322 36.9373C31.2011 37.4035 31.837 37.6653 32.5 37.6653H34.1667C34.8297 37.6653 35.4656 37.4035 35.9344 36.9373C36.4033 36.4711 36.6667 35.8389 36.6667 35.1796V32.6111C37.6078 32.4201 38.4537 31.9116 39.0611 31.1718C39.6685 30.432 40.0002 29.5062 40 28.5511V20.2655C39.9993 19.1686 39.6857 18.0944 39.0957 17.1675C38.5057 16.2406 37.6634 15.4991 36.6667 15.029ZM36.4667 11.1513C36.6228 11.151 36.776 11.1943 36.9086 11.2764C37.0412 11.3584 37.1479 11.4759 37.2167 11.6153C37.279 11.7418 37.3079 11.8819 37.3006 12.0225C37.2933 12.1632 37.2501 12.2996 37.175 12.419C37.0999 12.5384 36.9955 12.6368 36.8716 12.705C36.7476 12.7731 36.6083 12.8087 36.4667 12.8084H35.7167L35.05 11.1513H36.4667ZM5.6 13.9684L6.93333 10.6542L8.9 5.68281C9.12958 5.32362 9.44751 5.0286 9.82372 4.82562C10.1999 4.62264 10.622 4.51843 11.05 4.52282H28.95C29.3609 4.52084 29.766 4.61961 30.1294 4.81037C30.4927 5.00114 30.8032 5.27802 31.0333 5.61652L34.6 14.4656H5.4L5.6 13.9684ZM3.53333 12.8084C3.31232 12.8084 3.10036 12.7212 2.94408 12.5658C2.7878 12.4104 2.7 12.1996 2.7 11.9799C2.7 11.7601 2.7878 11.5494 2.94408 11.394C3.10036 11.2386 3.31232 11.1513 3.53333 11.1513H5L4.33333 12.8084H3.53333ZM8.33333 35.1796C8.33333 35.3994 8.24554 35.6101 8.08926 35.7655C7.93297 35.9209 7.72101 36.0082 7.5 36.0082H5.83333C5.61232 36.0082 5.40036 35.9209 5.24408 35.7655C5.0878 35.6101 5 35.3994 5 35.1796V32.694H8.33333V35.1796ZM12.6833 31.0368L13.65 26.0655H26.3833L27.35 31.0368H12.6833ZM35 35.1796C35 35.3994 34.9122 35.6101 34.7559 35.7655C34.5996 35.9209 34.3877 36.0082 34.1667 36.0082H32.5C32.279 36.0082 32.067 35.9209 31.9107 35.7655C31.7545 35.6101 31.6667 35.3994 31.6667 35.1796V32.694H35V35.1796ZM38.3333 28.5511C38.3333 29.2104 38.0699 29.8426 37.6011 30.3088C37.1323 30.775 36.4964 31.0368 35.8333 31.0368H29.0167L27.8667 25.0878C27.8317 24.8976 27.7309 24.7255 27.5817 24.6014C27.4326 24.4774 27.2445 24.409 27.05 24.4083H12.95C12.7555 24.409 12.5674 24.4774 12.4183 24.6014C12.2691 24.7255 12.1683 24.8976 12.1333 25.0878L10.9833 31.0368H4.16667C3.50363 31.0368 2.86774 30.775 2.3989 30.3088C1.93006 29.8426 1.66667 29.2104 1.66667 28.5511V20.2655C1.66667 19.1668 2.10565 18.113 2.88705 17.3361C3.66846 16.5592 4.72826 16.1227 5.83333 16.1227H34.1667C35.2717 16.1227 36.3315 16.5592 37.1129 17.3361C37.8943 18.113 38.3333 19.1668 38.3333 20.2655V28.5511ZM10.8333 17.7798H5.83333C5.17029 17.7798 4.53441 18.0417 4.06557 18.5079C3.59673 18.974 3.33333 19.6063 3.33333 20.2655V21.9226C3.33333 22.1424 3.42113 22.3531 3.57741 22.5085C3.73369 22.6639 3.94565 22.7512 4.16667 22.7512H10.8333C11.0543 22.7512 11.2663 22.6639 11.4226 22.5085C11.5789 22.3531 11.6667 22.1424 11.6667 21.9226V18.6084C11.6667 18.3886 11.5789 18.1779 11.4226 18.0225C11.2663 17.8671 11.0543 17.7798 10.8333 17.7798ZM10 21.0941H5V20.2655C5 20.0458 5.0878 19.835 5.24408 19.6796C5.40036 19.5242 5.61232 19.437 5.83333 19.437H10V21.0941ZM5.83333 24.4083C5.33888 24.4083 4.85553 24.5541 4.44441 24.8272C4.03328 25.1004 3.71285 25.4886 3.52363 25.9428C3.33442 26.397 3.28491 26.8968 3.38137 27.379C3.47783 27.8611 3.71593 28.304 4.06557 28.6517C4.4152 28.9993 4.86065 29.236 5.34561 29.3319C5.83056 29.4279 6.33323 29.3786 6.79004 29.1905C7.24686 29.0024 7.6373 28.6838 7.91201 28.275C8.18671 27.8662 8.33333 27.3856 8.33333 26.894C8.33333 26.2348 8.06994 25.6025 7.6011 25.1364C7.13226 24.6702 6.49637 24.4083 5.83333 24.4083ZM5.83333 27.7226C5.66852 27.7226 5.5074 27.674 5.37036 27.5829C5.23332 27.4919 5.12651 27.3625 5.06343 27.2111C5.00036 27.0597 4.98386 26.8931 5.01601 26.7324C5.04817 26.5716 5.12753 26.424 5.24408 26.3081C5.36062 26.1923 5.50911 26.1133 5.67076 26.0814C5.83241 26.0494 5.99996 26.0658 6.15224 26.1285C6.30451 26.1912 6.43466 26.2974 6.52622 26.4337C6.61779 26.57 6.66667 26.7301 6.66667 26.894C6.66667 27.1138 6.57887 27.3245 6.42259 27.4799C6.26631 27.6353 6.05435 27.7226 5.83333 27.7226ZM24.1667 19.437H17.5C17.279 19.437 17.067 19.5242 16.9107 19.6796C16.7545 19.835 16.6667 20.0458 16.6667 20.2655C16.6667 20.4853 16.7545 20.696 16.9107 20.8514C17.067 21.0068 17.279 21.0941 17.5 21.0941H24.1667C24.3877 21.0941 24.5996 21.0068 24.7559 20.8514C24.9122 20.696 25 20.4853 25 20.2655C25 20.0458 24.9122 19.835 24.7559 19.6796C24.5996 19.5242 24.3877 19.437 24.1667 19.437ZM34.1667 17.7798H29.1667C28.9457 17.7798 28.7337 17.8671 28.5774 18.0225C28.4211 18.1779 28.3333 18.3886 28.3333 18.6084V21.9226C28.3333 22.1424 28.4211 22.3531 28.5774 22.5085C28.7337 22.6639 28.9457 22.7512 29.1667 22.7512H35.8333C36.0543 22.7512 36.2663 22.6639 36.4226 22.5085C36.5789 22.3531 36.6667 22.1424 36.6667 21.9226V20.2655C36.6667 19.6063 36.4033 18.974 35.9344 18.5079C35.4656 18.0417 34.8297 17.7798 34.1667 17.7798ZM35 21.0941H30V19.437H34.1667C34.3877 19.437 34.5996 19.5242 34.7559 19.6796C34.9122 19.835 35 20.0458 35 20.2655V21.0941ZM34.1667 24.4083C33.6722 24.4083 33.1889 24.5541 32.7777 24.8272C32.3666 25.1004 32.0462 25.4886 31.857 25.9428C31.6677 26.397 31.6182 26.8968 31.7147 27.379C31.8112 27.8611 32.0493 28.304 32.3989 28.6517C32.7485 28.9993 33.194 29.236 33.6789 29.3319C34.1639 29.4279 34.6666 29.3786 35.1234 29.1905C35.5802 29.0024 35.9706 28.6838 36.2453 28.275C36.52 27.8662 36.6667 27.3856 36.6667 26.894C36.6667 26.2348 36.4033 25.6025 35.9344 25.1364C35.4656 24.6702 34.8297 24.4083 34.1667 24.4083ZM34.1667 27.7226C34.0018 27.7226 33.8407 27.674 33.7037 27.5829C33.5667 27.4919 33.4598 27.3625 33.3968 27.2111C33.3337 27.0597 33.3172 26.8931 33.3493 26.7324C33.3815 26.5716 33.4609 26.424 33.5774 26.3081C33.694 26.1923 33.8424 26.1133 34.0041 26.0814C34.1657 26.0494 34.3333 26.0658 34.4856 26.1285C34.6378 26.1912 34.768 26.2974 34.8596 26.4337C34.9511 26.57 35 26.7301 35 26.894C35 27.1138 34.9122 27.3245 34.7559 27.4799C34.5996 27.6353 34.3877 27.7226 34.1667 27.7226Z" fill="current"/>
</g>
<defs>
<clipPath id="clip0">
<rect width="40" height="39.771" fill="current" transform="translate(0 0.380005)"/>
</clipPath>
</defs>
</svg>
