<svg width="60" height="60" viewBox="0 0 60 60" fill="none" xmlns="http://www.w3.org/2000/svg">
<path d="M14.0625 9.375C14.5803 9.375 15 8.95527 15 8.4375C15 7.91973 14.5803 7.5 14.0625 7.5C13.5447 7.5 13.125 7.91973 13.125 8.4375C13.125 8.95527 13.5447 9.375 14.0625 9.375Z" fill="#B1B1B1 current"/>
<path d="M10.3125 9.375C10.8303 9.375 11.25 8.95527 11.25 8.4375C11.25 7.91973 10.8303 7.5 10.3125 7.5C9.79473 7.5 9.375 7.91973 9.375 8.4375C9.375 8.95527 9.79473 9.375 10.3125 9.375Z" fill="#B1B1B1 current"/>
<path d="M6.5625 9.375C7.08027 9.375 7.5 8.95527 7.5 8.4375C7.5 7.91973 7.08027 7.5 6.5625 7.5C6.04473 7.5 5.625 7.91973 5.625 8.4375C5.625 8.95527 6.04473 9.375 6.5625 9.375Z" fill="#B1B1B1 current"/>
<path d="M57.1875 13.125H2.8125C2.295 13.125 1.875 12.705 1.875 12.1875C1.875 11.67 2.295 11.25 2.8125 11.25H57.1875C57.705 11.25 58.125 11.67 58.125 12.1875C58.125 12.705 57.705 13.125 57.1875 13.125Z" fill="#B1B1B1 current"/>
<path d="M2.8125 41.25C2.295 41.25 1.875 40.83 1.875 40.3125V6.5625C1.875 5.01187 3.13687 3.75 4.6875 3.75H55.3125C56.8631 3.75 58.125 5.01187 58.125 6.5625V23.4375C58.125 23.955 57.705 24.375 57.1875 24.375C56.67 24.375 56.25 23.955 56.25 23.4375V6.5625C56.25 6.04688 55.83 5.625 55.3125 5.625H4.6875C4.17 5.625 3.75 6.04688 3.75 6.5625V40.3125C3.75 40.83 3.33 41.25 2.8125 41.25ZM41.25 58.125H19.6875C19.17 58.125 18.75 57.705 18.75 57.1875C18.75 56.67 19.17 56.25 19.6875 56.25H21.5625C23.1131 56.25 24.375 54.9881 24.375 53.4375V51.5625C24.375 51.045 24.795 50.625 25.3125 50.625C25.83 50.625 26.25 51.045 26.25 51.5625V53.4375C26.25 54.4931 25.8994 55.4663 25.3106 56.25H34.6894C34.1006 55.4663 33.75 54.4931 33.75 53.4375V47.8125C33.75 47.295 34.17 46.875 34.6875 46.875C35.205 46.875 35.625 47.295 35.625 47.8125V53.4375C35.625 54.9881 36.8869 56.25 38.4375 56.25H41.25C41.7675 56.25 42.1875 56.67 42.1875 57.1875C42.1875 57.705 41.7675 58.125 41.25 58.125Z" fill="#B1B1B1 current"/>
<path d="M34.6875 48.75H4.6875C3.13687 48.75 1.875 47.4881 1.875 45.9375V40.3125C1.875 39.795 2.295 39.375 2.8125 39.375H29.0625C29.58 39.375 30 39.795 30 40.3125C30 40.83 29.58 41.25 29.0625 41.25H3.75V45.9375C3.75 46.4531 4.17 46.875 4.6875 46.875H34.6875C35.205 46.875 35.625 47.295 35.625 47.8125C35.625 48.33 35.205 48.75 34.6875 48.75ZM34.6875 26.25H32.8125C32.295 26.25 31.875 25.83 31.875 25.3125C31.875 24.795 32.295 24.375 32.8125 24.375H34.6875C35.205 24.375 35.625 24.795 35.625 25.3125C35.625 25.83 35.205 26.25 34.6875 26.25ZM51.5625 18.75H32.8125C32.295 18.75 31.875 18.33 31.875 17.8125C31.875 17.295 32.295 16.875 32.8125 16.875H51.5625C52.08 16.875 52.5 17.295 52.5 17.8125C52.5 18.33 52.08 18.75 51.5625 18.75ZM51.5625 22.5H32.8125C32.295 22.5 31.875 22.08 31.875 21.5625C31.875 21.045 32.295 20.625 32.8125 20.625H51.5625C52.08 20.625 52.5 21.045 52.5 21.5625C52.5 22.08 52.08 22.5 51.5625 22.5ZM14.0625 26.25H8.4375C7.92 26.25 7.5 25.83 7.5 25.3125C7.5 24.795 7.92 24.375 8.4375 24.375H14.0625C14.58 24.375 15 24.795 15 25.3125C15 25.83 14.58 26.25 14.0625 26.25ZM27.1875 18.75H8.4375C7.92 18.75 7.5 18.33 7.5 17.8125C7.5 17.295 7.92 16.875 8.4375 16.875H27.1875C27.705 16.875 28.125 17.295 28.125 17.8125C28.125 18.33 27.705 18.75 27.1875 18.75ZM27.1875 22.5H8.4375C7.92 22.5 7.5 22.08 7.5 21.5625C7.5 21.045 7.92 20.625 8.4375 20.625H27.1875C27.705 20.625 28.125 21.045 28.125 21.5625C28.125 22.08 27.705 22.5 27.1875 22.5Z" fill="#B1B1B1 current"/>
<path d="M45 50.625C37.7625 50.625 31.875 44.7356 31.875 37.5C31.875 30.2644 37.7625 24.375 45 24.375C47.535 24.375 49.9931 25.0987 52.11 26.4656C52.545 26.7469 52.6688 27.3262 52.3875 27.7612C52.1063 28.1925 51.5288 28.3238 51.0919 28.0388C49.2806 26.8688 47.1731 26.25 45 26.25C38.7956 26.25 33.75 31.2956 33.75 37.5C33.75 43.7044 38.7956 48.75 45 48.75C51.2044 48.75 56.25 43.7044 56.25 37.5C56.25 36.2963 56.0606 35.1131 55.6894 33.9806C55.5281 33.4875 55.7963 32.9588 56.2875 32.7975C56.7788 32.6325 57.3094 32.9044 57.4706 33.3937C57.9037 34.7175 58.125 36.0975 58.125 37.5C58.125 44.7356 52.2375 50.625 45 50.625Z" fill="#B1B1B1 current"/>
<path d="M44.0624 42.5606C44.0549 42.5606 44.0474 42.5606 44.0399 42.5606C43.768 42.5531 43.5149 42.4312 43.3405 42.2231L38.653 36.5981C38.323 36.1987 38.3774 35.6081 38.773 35.2762C39.1724 34.9462 39.7612 35.0006 40.0949 35.3962L44.0943 40.1981L55.7474 27.3262C56.0999 26.9437 56.6924 26.9212 57.0712 27.2681C57.4518 27.6187 57.478 28.2112 57.1274 28.5937L44.7524 42.2569C44.5743 42.4519 44.3268 42.5606 44.0624 42.5606Z" fill="#B1B1B1 current"/>
</svg>
