<svg width="32" height="33" viewBox="0 0 32 33" fill="none" xmlns="http://www.w3.org/2000/svg">
<g clip-path="url(#clip0)">
<path d="M7.81303 4.33417C3.51799 4.33417 -0.0697119 7.75507 0.000525845 12.0398C0.0570635 15.4887 2.61568 18.7997 5.43803 21.6097C8.26037 24.4197 11.485 26.7731 13.188 28.0104L13.7505 28.3832L14.313 28.0104C16.0148 26.7741 19.2907 24.3636 22.1255 21.5476C22.407 21.268 22.6646 20.9653 22.938 20.6776L22.188 18.9997L22.063 18.689C21.6193 19.1973 21.179 19.6926 20.688 20.1804C19.9208 20.9424 19.1491 21.6944 18.3755 22.3554C16.6457 23.8337 14.9685 25.0086 13.7505 25.8975C12.2528 24.8036 10.1292 23.2051 8.00053 21.2369C7.62978 20.894 7.24207 20.5453 6.87553 20.1804C4.19706 17.5136 2.04025 14.4631 2.00053 12.0398C1.94857 8.87065 4.59717 6.32272 7.81303 6.32272C10.0238 6.32272 11.8907 7.50591 12.8755 9.30555L13.7505 10.9212L14.6255 9.30555C15.6103 7.50591 17.4772 6.32272 19.688 6.32272C20.1068 6.32272 20.8089 6.43602 21.1607 6.54022C23.6723 7.16681 25.5005 9.3473 25.5005 12.0398L27.063 9.6784C26.04 6.58799 23.1424 4.33417 19.688 4.33417C17.2006 4.33417 15.1723 5.63408 13.7505 7.44128C12.3288 5.63408 10.3004 4.33417 7.81303 4.33417ZM21.0005 8.77345L17.8091 16.1761L15.8794 13.2943L13.3833 18.254H10.0005V20.2426H14.6177L16.1255 17.2481L18.1919 20.3358L21.0005 13.8186L23.8326 20.3824L26.1958 16.6655L27.2544 20.2426H31.063V18.254H28.7505L26.8677 11.8922L24.1724 16.1295L21.0005 8.77345Z" fill="current"/>
</g>
<defs>
<clipPath id="clip0">
<rect width="32" height="31.8168" fill="current" transform="translate(0 0.357086)"/>
</clipPath>
</defs>
</svg>
