<svg width="32" height="33" viewBox="0 0 32 33" fill="none" xmlns="http://www.w3.org/2000/svg">
<path d="M26.6667 10.9627L18.6667 3.98949C17.9333 3.33731 16.9839 2.97675 16 2.97675C15.0161 2.97675 14.0667 3.33731 13.3333 3.98949L5.33334 10.9627C4.90983 11.3393 4.57187 11.8013 4.34197 12.3179C4.11206 12.8345 3.99549 13.3939 4 13.9588V25.5454C4 26.6002 4.42143 27.6118 5.17158 28.3576C5.92172 29.1035 6.93914 29.5225 8 29.5225H24C25.0609 29.5225 26.0783 29.1035 26.8284 28.3576C27.5786 27.6118 28 26.6002 28 25.5454V13.9455C28.0026 13.3828 27.8851 12.826 27.6553 12.3118C27.4254 11.7976 27.0885 11.3378 26.6667 10.9627ZM18.6667 26.8711H13.3333V20.2426C13.3333 19.891 13.4738 19.5538 13.7239 19.3052C13.9739 19.0566 14.313 18.9169 14.6667 18.9169H17.3333C17.687 18.9169 18.0261 19.0566 18.2761 19.3052C18.5262 19.5538 18.6667 19.891 18.6667 20.2426V26.8711ZM25.3333 25.5454C25.3333 25.897 25.1929 26.2342 24.9428 26.4828C24.6928 26.7314 24.3536 26.8711 24 26.8711H21.3333V20.2426C21.3333 19.1878 20.9119 18.1762 20.1618 17.4303C19.4116 16.6845 18.3942 16.2655 17.3333 16.2655H14.6667C13.6058 16.2655 12.5884 16.6845 11.8382 17.4303C11.0881 18.1762 10.6667 19.1878 10.6667 20.2426V26.8711H8C7.64638 26.8711 7.30724 26.7314 7.0572 26.4828C6.80715 26.2342 6.66667 25.897 6.66667 25.5454V13.9455C6.66691 13.7573 6.70746 13.5713 6.78563 13.3998C6.86379 13.2284 6.97778 13.0755 7.12 12.9512L15.12 5.9913C15.3633 5.77876 15.6761 5.66155 16 5.66155C16.3239 5.66155 16.6367 5.77876 16.88 5.9913L24.88 12.9512C25.0222 13.0755 25.1362 13.2284 25.2144 13.3998C25.2925 13.5713 25.3331 13.7573 25.3333 13.9455V25.5454Z" fill="current"/>
</svg>
