<svg width="64" height="64" viewBox="0 0 64 64" fill="none" xmlns="http://www.w3.org/2000/svg">
<path d="M50.311 39.275L48.785 40.725C47.752 41.707 46.551 42.491 45.215 43.055L41.611 44.578C41.203 44.75 40.958 45.169 41.006 45.609L41.344 48.66C41.98 54.404 45.239 59.532 50.284 62.73L50.464 62.844C50.628 62.948 50.814 63 51 63C51.186 63 51.372 62.948 51.536 62.845L51.716 62.731C56.762 59.533 60.021 54.405 60.657 48.661L60.995 45.61C61.043 45.171 60.798 44.751 60.39 44.579L56.786 43.056C55.451 42.492 54.249 41.708 53.217 40.726L51.691 39.276C51.303 38.908 50.697 38.908 50.311 39.275ZM55 57.157C53.88 58.543 52.543 59.783 51 60.811C49.457 59.783 48.12 58.544 47 57.157V56C47 54.346 48.346 53 50 53H52C53.654 53 55 54.346 55 56V57.157ZM49 49C49 47.897 49.897 47 51 47C52.103 47 53 47.897 53 49C53 50.103 52.103 51 51 51C49.897 51 49 50.103 49 49ZM56.007 44.898L58.924 46.131L58.668 48.441C58.43 50.592 57.757 52.636 56.747 54.509C56.324 53.169 55.367 52.074 54.11 51.484C54.658 50.799 55 49.943 55 49C55 46.794 53.206 45 51 45C48.794 45 47 46.794 47 49C47 49.943 47.342 50.799 47.89 51.484C46.633 52.074 45.676 53.169 45.253 54.509C44.244 52.635 43.571 50.592 43.332 48.441L43.076 46.131L45.993 44.899C47.552 44.241 48.955 43.325 50.163 42.176L51 41.379L51.837 42.175C53.045 43.324 54.448 44.24 56.007 44.898Z" fill="#488BFF current"/>
<path d="M4 2V60C4 60.552 4.448 61 5 61H45V59H6V43H42V41H6V25H50V38H52V2C52 1.448 51.552 1 51 1H5C4.448 1 4 1.448 4 2ZM6 3H50V23H6V3Z" fill="#488BFF current"/>
<path d="M35 9H32V6C32 5.448 31.552 5 31 5H25C24.448 5 24 5.448 24 6V9H21C20.448 9 20 9.448 20 10V16C20 16.552 20.448 17 21 17H24V20C24 20.552 24.448 21 25 21H31C31.552 21 32 20.552 32 20V17H35C35.552 17 36 16.552 36 16V10C36 9.448 35.552 9 35 9ZM34 15H31C30.448 15 30 15.448 30 16V19H26V16C26 15.448 25.552 15 25 15H22V11H25C25.552 11 26 10.552 26 10V7H30V10C30 10.552 30.448 11 31 11H34V15ZM15 30C15.551 30 16 30.449 16 31H18C18 29.698 17.161 28.598 16 28.184V27H14V28.184C12.839 28.598 12 29.698 12 31C12 32.654 13.346 34 15 34C15.551 34 16 34.449 16 35C16 35.551 15.551 36 15 36C14.449 36 14 35.551 14 35H12C12 36.302 12.839 37.402 14 37.816V39H16V37.816C17.161 37.402 18 36.302 18 35C18 33.346 16.654 32 15 32C14.449 32 14 31.551 14 31C14 30.449 14.449 30 15 30ZM15 48C15.551 48 16 48.449 16 49H18C18 47.698 17.161 46.598 16 46.184V45H14V46.184C12.839 46.598 12 47.698 12 49C12 50.654 13.346 52 15 52C15.551 52 16 52.449 16 53C16 53.551 15.551 54 15 54C14.449 54 14 53.551 14 53H12C12 54.302 12.839 55.402 14 55.816V57H16V55.816C17.161 55.402 18 54.302 18 53C18 51.346 16.654 50 15 50C14.449 50 14 49.551 14 49C14 48.449 14.449 48 15 48ZM27.707 32.293L26.293 33.707L29.293 36.707C29.488 36.902 29.744 37 30 37C30.256 37 30.512 36.902 30.707 36.707L37.707 29.707L36.293 28.293L30 34.586L27.707 32.293ZM27.707 50.293L26.293 51.707L29.293 54.707C29.488 54.902 29.744 55 30 55C30.256 55 30.512 54.902 30.707 54.707L37.707 47.707L36.293 46.293L30 52.586L27.707 50.293Z" fill="#488BFF current"/>
</svg>
