<svg width="64" height="64" viewBox="0 0 64 64" fill="none" xmlns="http://www.w3.org/2000/svg">
<path d="M59 20H57V17C57 16.7348 56.8946 16.4804 56.7071 16.2929C56.5196 16.1054 56.2652 16 56 16H54V13C54 12.7348 53.8946 12.4804 53.7071 12.2929C53.5196 12.1054 53.2652 12 53 12H11C10.7348 12 10.4804 12.1054 10.2929 12.2929C10.1054 12.4804 10 12.7348 10 13V16H8C7.73478 16 7.48043 16.1054 7.29289 16.2929C7.10536 16.4804 7 16.7348 7 17V20H5C4.73478 20 4.48043 20.1054 4.29289 20.2929C4.10536 20.4804 4 20.7348 4 21V51C4 51.2652 4.10536 51.5196 4.29289 51.7071C4.48043 51.8946 4.73478 52 5 52H59C59.2652 52 59.5196 51.8946 59.7071 51.7071C59.8946 51.5196 60 51.2652 60 51V21C60 20.7348 59.8946 20.4804 59.7071 20.2929C59.5196 20.1054 59.2652 20 59 20ZM50.06 22C50.2876 24.0275 51.1972 25.9175 52.6399 27.3601C54.0825 28.8028 55.9725 29.7124 58 29.94V42.06C55.9725 42.2876 54.0825 43.1972 52.6399 44.6399C51.1972 46.0825 50.2876 47.9725 50.06 50H13.94C13.7124 47.9725 12.8028 46.0825 11.3601 44.6399C9.91748 43.1972 8.02748 42.2876 6 42.06V29.94C8.02748 29.7124 9.91748 28.8028 11.3601 27.3601C12.8028 25.9175 13.7124 24.0275 13.94 22H50.06ZM58 27.93C56.5038 27.7144 55.1176 27.0202 54.0487 25.9513C52.9798 24.8824 52.2856 23.4962 52.07 22H58V27.93ZM12 14H52V16H12V14ZM9 18H55V20H9V18ZM6 22H11.93C11.7144 23.4962 11.0202 24.8824 9.95132 25.9513C8.88241 27.0202 7.49621 27.7144 6 27.93V22ZM6 50V44.07C7.49621 44.2856 8.88241 44.9798 9.95132 46.0487C11.0202 47.1176 11.7144 48.5038 11.93 50H6ZM58 50H52.07C52.2856 48.5038 52.9798 47.1176 54.0487 46.0487C55.1176 44.9798 56.5038 44.2856 58 44.07V50Z" fill="#B1B1B1 current"/>
<path d="M32 46C33.9778 46 35.9112 45.4135 37.5557 44.3147C39.2002 43.2159 40.4819 41.6541 41.2388 39.8268C41.9957 37.9996 42.1937 35.9889 41.8079 34.0491C41.422 32.1093 40.4696 30.3275 39.0711 28.9289C37.6725 27.5304 35.8907 26.578 33.9509 26.1922C32.0111 25.8063 30.0004 26.0043 28.1732 26.7612C26.3459 27.5181 24.7841 28.7998 23.6853 30.4443C22.5865 32.0888 22 34.0222 22 36C22 37.3132 22.2587 38.6136 22.7612 39.8268C23.2638 41.0401 24.0003 42.1425 24.9289 43.0711C26.8043 44.9464 29.3478 46 32 46ZM32 28C33.5823 28 35.129 28.4692 36.4446 29.3482C37.7602 30.2273 38.7855 31.4767 39.391 32.9385C39.9965 34.4003 40.155 36.0089 39.8463 37.5607C39.5376 39.1126 38.7757 40.538 37.6569 41.6569C36.538 42.7757 35.1126 43.5376 33.5607 43.8463C32.0089 44.155 30.4003 43.9965 28.9385 43.391C27.4767 42.7855 26.2273 41.7602 25.3482 40.4446C24.4692 39.129 24 37.5823 24 36C24 33.8783 24.8429 31.8434 26.3431 30.3432C27.8434 28.8429 29.8783 28 32 28Z" fill="#B1B1B1 current"/>
</svg>
