<svg width="64" height="64" viewBox="0 0 64 64" fill="none" xmlns="http://www.w3.org/2000/svg">
<path d="M53.92 12H51V14H53.94C54.7534 14.0053 55.5317 14.3321 56.105 14.9092C56.6783 15.4862 57 16.2666 57 17.08V42H55V17C55 16.7348 54.8946 16.4804 54.7071 16.2929C54.5196 16.1054 54.2652 16 54 16H51V18H53V42H49V5C49 4.73478 48.8946 4.48043 48.7071 4.29289C48.5196 4.10536 48.2652 4 48 4H16C15.7348 4 15.4804 4.10536 15.2929 4.29289C15.1054 4.48043 15 4.73478 15 5V42H11V18H13V16H10C9.73478 16 9.48043 16.1054 9.29289 16.2929C9.10536 16.4804 9 16.7348 9 17V42H7V17.08C7 16.2631 7.3245 15.4797 7.90211 14.9021C8.47972 14.3245 9.26313 14 10.08 14H13V12H10.1C9.43157 11.9987 8.76943 12.129 8.15138 12.3836C7.53333 12.6382 6.97147 13.012 6.49789 13.4838C6.02432 13.9555 5.64829 14.5159 5.39128 15.1329C5.13427 15.7499 5.00131 16.4116 5 17.08V46.92C5.00264 48.2665 5.5387 49.5571 6.49082 50.5092C7.44293 51.4613 8.73351 51.9974 10.08 52H27V58H23V60H41V58H37V52H53.92C55.2665 51.9974 56.5571 51.4613 57.5092 50.5092C58.4613 49.5571 58.9974 48.2665 59 46.92V17.08C58.9974 15.7335 58.4613 14.4429 57.5092 13.4908C56.5571 12.5387 55.2665 12.0026 53.92 12ZM17 6H47V42H17V6ZM35 58H29V52H35V58ZM53.92 50H10.08C9.26313 50 8.47972 49.6755 7.90211 49.0979C7.3245 48.5203 7 47.7369 7 46.92V44H57V46.92C57 47.7369 56.6755 48.5203 56.0979 49.0979C55.5203 49.6755 54.7369 50 53.92 50ZM28 46H36V48H28V46ZM33 11H43V13H33V11ZM33 17H43V19H33V17ZM33 23H43V25H33V23ZM33 29H43V31H33V29ZM28 29H22C21.7348 29 21.4804 29.1054 21.2929 29.2929C21.1054 29.4804 21 29.7348 21 30V36C21 36.2652 21.1054 36.5196 21.2929 36.7071C21.4804 36.8946 21.7348 37 22 37H28C28.2652 37 28.5196 36.8946 28.7071 36.7071C28.8946 36.5196 29 36.2652 29 36V30C29 29.7348 28.8946 29.4804 28.7071 29.2929C28.5196 29.1054 28.2652 29 28 29ZM27 35H23V31H27V35ZM33 35H43V37H33V35ZM23.45 16.83L20.45 14.83L21.55 13.17L23.87 14.71L27.29 11.29L28.71 12.71L24.71 16.71C24.6166 16.8027 24.5057 16.876 24.3839 16.9258C24.2621 16.9755 24.1316 17.0008 24 17C23.804 16.9985 23.6127 16.9394 23.45 16.83ZM23.45 24.83L20.45 22.83L21.55 21.17L23.87 22.71L27.29 19.29L28.71 20.71L24.71 24.71C24.6166 24.8027 24.5057 24.876 24.3839 24.9258C24.2621 24.9755 24.1316 25.0008 24 25C23.804 24.9985 23.6127 24.9394 23.45 24.83Z" fill="current"/>
</svg>
